<mxfile host="65bd71144e">
    <diagram name="MVP" id="hhVdmG7qp3-gSnd729h2">
        <mxGraphModel dx="2555" dy="792" grid="1" gridSize="10" guides="1" tooltips="1" connect="1" arrows="1" fold="1" page="1" pageScale="1" pageWidth="1169" pageHeight="827" math="0" shadow="0">
            <root>
                <mxCell id="iS8EpkCe7OQIAsiuieth-0"/>
                <mxCell id="iS8EpkCe7OQIAsiuieth-1" parent="iS8EpkCe7OQIAsiuieth-0"/>
                <mxCell id="uiXyijxEQFmW8_uioSfv-3" value="" style="edgeStyle=none;html=1;fontSize=13;fontColor=#FFFFFF;" parent="iS8EpkCe7OQIAsiuieth-1" source="uiXyijxEQFmW8_uioSfv-1" target="uiXyijxEQFmW8_uioSfv-2" edge="1">
                    <mxGeometry relative="1" as="geometry"/>
                </mxCell>
                <mxCell id="uiXyijxEQFmW8_uioSfv-7" style="edgeStyle=none;html=1;fontSize=13;fontColor=#FFFFFF;" parent="iS8EpkCe7OQIAsiuieth-1" source="uiXyijxEQFmW8_uioSfv-1" target="uiXyijxEQFmW8_uioSfv-5" edge="1">
                    <mxGeometry relative="1" as="geometry"/>
                </mxCell>
                <mxCell id="uiXyijxEQFmW8_uioSfv-8" style="edgeStyle=none;html=1;fontSize=13;fontColor=#FFFFFF;" parent="iS8EpkCe7OQIAsiuieth-1" source="uiXyijxEQFmW8_uioSfv-1" target="uiXyijxEQFmW8_uioSfv-6" edge="1">
                    <mxGeometry relative="1" as="geometry"/>
                </mxCell>
                <mxCell id="uiXyijxEQFmW8_uioSfv-1" value="CLIENTES" style="ellipse;whiteSpace=wrap;html=1;labelBackgroundColor=none;fontSize=13;fontColor=#000000;fillColor=#e3c800;strokeColor=#B09500;" parent="iS8EpkCe7OQIAsiuieth-1" vertex="1">
                    <mxGeometry x="-680" y="170" width="230" height="240" as="geometry"/>
                </mxCell>
                <mxCell id="uiXyijxEQFmW8_uioSfv-2" value="LANÇAMENTOS" style="ellipse;whiteSpace=wrap;html=1;fontSize=13;fillColor=#6d8764;strokeColor=#3A5431;fontColor=#ffffff;labelBackgroundColor=none;" parent="iS8EpkCe7OQIAsiuieth-1" vertex="1">
                    <mxGeometry x="-900" y="235" width="110" height="110" as="geometry"/>
                </mxCell>
                <mxCell id="uiXyijxEQFmW8_uioSfv-5" value="RELATÓRIOS" style="ellipse;whiteSpace=wrap;html=1;fontSize=13;fillColor=#6d8764;strokeColor=#3A5431;fontColor=#ffffff;labelBackgroundColor=none;" parent="iS8EpkCe7OQIAsiuieth-1" vertex="1">
                    <mxGeometry x="-620" y="521" width="110" height="110" as="geometry"/>
                </mxCell>
                <mxCell id="uiXyijxEQFmW8_uioSfv-6" value="DASHBOARD" style="ellipse;whiteSpace=wrap;html=1;fontSize=13;fillColor=#6d8764;strokeColor=#3A5431;fontColor=#ffffff;labelBackgroundColor=none;" parent="iS8EpkCe7OQIAsiuieth-1" vertex="1">
                    <mxGeometry x="-340" y="235" width="110" height="110" as="geometry"/>
                </mxCell>
            </root>
        </mxGraphModel>
    </diagram>
    <diagram id="m8KbccVwNlPYS12_Y0ul" name="GERAL">
        <mxGraphModel dx="2555" dy="792" grid="1" gridSize="10" guides="1" tooltips="1" connect="1" arrows="1" fold="1" page="1" pageScale="1" pageWidth="1169" pageHeight="827" math="0" shadow="0">
            <root>
                <mxCell id="0"/>
                <mxCell id="1" parent="0"/>
                <mxCell id="35" style="edgeStyle=none;html=1;" parent="1" source="19" target="21" edge="1">
                    <mxGeometry relative="1" as="geometry"/>
                </mxCell>
                <mxCell id="19" value="CLIENTES" style="rounded=0;whiteSpace=wrap;html=1;fillColor=#60a917;fontColor=#ffffff;strokeColor=#2D7600;" parent="1" vertex="1">
                    <mxGeometry x="-1010" y="194" width="120" height="60" as="geometry"/>
                </mxCell>
                <mxCell id="27" style="edgeStyle=none;html=1;" parent="1" source="20" edge="1">
                    <mxGeometry relative="1" as="geometry">
                        <mxPoint x="-400" y="358" as="targetPoint"/>
                    </mxGeometry>
                </mxCell>
                <mxCell id="20" value="LANÇAMENTOS" style="rounded=0;whiteSpace=wrap;html=1;fillColor=#1ba1e2;fontColor=#ffffff;strokeColor=#006EAF;" parent="1" vertex="1">
                    <mxGeometry x="-600" y="328" width="120" height="60" as="geometry"/>
                </mxCell>
                <mxCell id="26" style="edgeStyle=none;html=1;startArrow=none;" parent="1" source="37" target="20" edge="1">
                    <mxGeometry relative="1" as="geometry">
                        <mxPoint x="-800" y="484" as="targetPoint"/>
                    </mxGeometry>
                </mxCell>
                <mxCell id="21" value="SIMULAÇÃO DE FINANCIAMENTO" style="rounded=0;whiteSpace=wrap;html=1;fillColor=#6d8764;fontColor=#ffffff;strokeColor=#3A5431;" parent="1" vertex="1">
                    <mxGeometry x="-1010" y="328" width="120" height="60" as="geometry"/>
                </mxCell>
                <mxCell id="38" value="" style="edgeStyle=none;html=1;endArrow=none;" parent="1" source="21" target="37" edge="1">
                    <mxGeometry relative="1" as="geometry">
                        <mxPoint x="-890" y="358.8780487804877" as="sourcePoint"/>
                        <mxPoint x="-600" y="363.1219512195121" as="targetPoint"/>
                    </mxGeometry>
                </mxCell>
                <mxCell id="37" value="TRANSFORMAR ESSA SIMULAÇÃO EM LANÇAMENTOS" style="rhombus;whiteSpace=wrap;html=1;fillColor=#6a00ff;fontColor=#ffffff;strokeColor=#3700CC;" parent="1" vertex="1">
                    <mxGeometry x="-820" y="288" width="140" height="140" as="geometry"/>
                </mxCell>
                <mxCell id="42" style="edgeStyle=none;html=1;" parent="1" source="39" target="20" edge="1">
                    <mxGeometry relative="1" as="geometry"/>
                </mxCell>
                <mxCell id="43" style="edgeStyle=none;html=1;" parent="1" source="39" target="40" edge="1">
                    <mxGeometry relative="1" as="geometry"/>
                </mxCell>
                <mxCell id="46" style="edgeStyle=none;html=1;exitX=1;exitY=0.5;exitDx=0;exitDy=0;entryX=0;entryY=0.5;entryDx=0;entryDy=0;" parent="1" source="39" target="44" edge="1">
                    <mxGeometry relative="1" as="geometry"/>
                </mxCell>
                <mxCell id="39" value="TABELA EVENTOS FINANCEIROS" style="rounded=0;whiteSpace=wrap;html=1;fillColor=#a20025;fontColor=#ffffff;strokeColor=#6F0000;" parent="1" vertex="1">
                    <mxGeometry x="-600" y="474" width="120" height="60" as="geometry"/>
                </mxCell>
                <mxCell id="47" style="edgeStyle=none;html=1;" parent="1" source="40" target="45" edge="1">
                    <mxGeometry relative="1" as="geometry"/>
                </mxCell>
                <mxCell id="40" value="TABELA EVENTOS CONTÁBEIS" style="rounded=0;whiteSpace=wrap;html=1;fillColor=#a20025;fontColor=#ffffff;strokeColor=#6F0000;" parent="1" vertex="1">
                    <mxGeometry x="-600" y="574" width="120" height="60" as="geometry"/>
                </mxCell>
                <mxCell id="44" value="RELATÓRIOS" style="rounded=0;whiteSpace=wrap;html=1;fillColor=#fa6800;fontColor=#000000;strokeColor=#C73500;" parent="1" vertex="1">
                    <mxGeometry x="-420" y="474" width="120" height="60" as="geometry"/>
                </mxCell>
                <mxCell id="45" value="EXPORTAÇÃO" style="rounded=0;whiteSpace=wrap;html=1;fillColor=#fa6800;fontColor=#000000;strokeColor=#C73500;" parent="1" vertex="1">
                    <mxGeometry x="-420" y="574" width="120" height="60" as="geometry"/>
                </mxCell>
                <mxCell id="48" value="Estas modalidades de parcelamento surgem uma nova de tempos em tempos, são os famosos planos refis" style="text;html=1;strokeColor=none;fillColor=none;align=left;verticalAlign=middle;whiteSpace=wrap;rounded=0;" parent="1" vertex="1">
                    <mxGeometry x="-420" y="273" width="210" height="55" as="geometry"/>
                </mxCell>
                <mxCell id="49" value="&lt;span style=&quot;text-align: left;&quot;&gt;FORMAS DE PARCELAMENTO&lt;/span&gt;&lt;br style=&quot;text-align: left;&quot;&gt;&lt;span style=&quot;text-align: left;&quot;&gt;(MODELO CONVENCIONAL E HELP)&lt;/span&gt;" style="rounded=0;whiteSpace=wrap;html=1;fillColor=#0050ef;fontColor=#ffffff;strokeColor=#001DBC;" parent="1" vertex="1">
                    <mxGeometry x="-420" y="328" width="190" height="60" as="geometry"/>
                </mxCell>
            </root>
        </mxGraphModel>
    </diagram>
    <diagram id="NDEGvY9XfKFNd4K21x4O" name="SISTEMA DE AMORTIZAÇÃO">
        <mxGraphModel dx="1386" dy="792" grid="1" gridSize="10" guides="1" tooltips="1" connect="1" arrows="1" fold="1" page="1" pageScale="1" pageWidth="1169" pageHeight="827" math="0" shadow="0">
            <root>
                <mxCell id="EwVxq-ZTSb2x7PLmQgKl-0"/>
                <mxCell id="EwVxq-ZTSb2x7PLmQgKl-1" parent="EwVxq-ZTSb2x7PLmQgKl-0"/>
                <mxCell id="IpnKzhqXoF9QigHe_is3-10" value="" style="edgeStyle=none;html=1;fontSize=19;fontColor=#FFFFFF;" parent="EwVxq-ZTSb2x7PLmQgKl-1" source="IpnKzhqXoF9QigHe_is3-8" target="IpnKzhqXoF9QigHe_is3-9" edge="1">
                    <mxGeometry relative="1" as="geometry"/>
                </mxCell>
                <mxCell id="IpnKzhqXoF9QigHe_is3-12" style="edgeStyle=none;html=1;fontSize=13;fontColor=#FFFFFF;" parent="EwVxq-ZTSb2x7PLmQgKl-1" source="IpnKzhqXoF9QigHe_is3-8" target="IpnKzhqXoF9QigHe_is3-11" edge="1">
                    <mxGeometry relative="1" as="geometry"/>
                </mxCell>
                <mxCell id="IpnKzhqXoF9QigHe_is3-14" style="edgeStyle=none;html=1;fontSize=13;fontColor=#FFFFFF;" parent="EwVxq-ZTSb2x7PLmQgKl-1" source="IpnKzhqXoF9QigHe_is3-8" target="IpnKzhqXoF9QigHe_is3-13" edge="1">
                    <mxGeometry relative="1" as="geometry"/>
                </mxCell>
                <mxCell id="IpnKzhqXoF9QigHe_is3-17" style="edgeStyle=none;html=1;fontSize=13;fontColor=#FFFFFF;" parent="EwVxq-ZTSb2x7PLmQgKl-1" source="IpnKzhqXoF9QigHe_is3-8" target="IpnKzhqXoF9QigHe_is3-16" edge="1">
                    <mxGeometry relative="1" as="geometry"/>
                </mxCell>
                <mxCell id="IpnKzhqXoF9QigHe_is3-18" style="edgeStyle=none;html=1;fontSize=13;fontColor=#FFFFFF;" parent="EwVxq-ZTSb2x7PLmQgKl-1" source="IpnKzhqXoF9QigHe_is3-8" target="IpnKzhqXoF9QigHe_is3-15" edge="1">
                    <mxGeometry relative="1" as="geometry"/>
                </mxCell>
                <mxCell id="IpnKzhqXoF9QigHe_is3-20" style="edgeStyle=none;html=1;fontSize=13;fontColor=#FFFFFF;" parent="EwVxq-ZTSb2x7PLmQgKl-1" source="IpnKzhqXoF9QigHe_is3-8" target="IpnKzhqXoF9QigHe_is3-19" edge="1">
                    <mxGeometry relative="1" as="geometry"/>
                </mxCell>
                <mxCell id="IpnKzhqXoF9QigHe_is3-22" style="edgeStyle=none;html=1;fontSize=13;fontColor=#FFFFFF;" parent="EwVxq-ZTSb2x7PLmQgKl-1" source="IpnKzhqXoF9QigHe_is3-8" target="IpnKzhqXoF9QigHe_is3-21" edge="1">
                    <mxGeometry relative="1" as="geometry"/>
                </mxCell>
                <mxCell id="IpnKzhqXoF9QigHe_is3-8" value="SISTEMAS DE AMORTIZAÇÃO" style="ellipse;whiteSpace=wrap;html=1;labelBackgroundColor=none;fontSize=19;fontColor=#FFFFFF;fillColor=#fa6800;strokeColor=#C73500;fontStyle=0" parent="EwVxq-ZTSb2x7PLmQgKl-1" vertex="1">
                    <mxGeometry x="450" y="169" width="250" height="250" as="geometry"/>
                </mxCell>
                <mxCell id="IpnKzhqXoF9QigHe_is3-9" value="SISTEMA PRICE" style="ellipse;whiteSpace=wrap;html=1;fontSize=13;fillColor=#e3c800;strokeColor=#B09500;fontColor=#000000;labelBackgroundColor=none;fontStyle=0;" parent="EwVxq-ZTSb2x7PLmQgKl-1" vertex="1">
                    <mxGeometry x="250" y="383" width="110" height="110" as="geometry"/>
                </mxCell>
                <mxCell id="IpnKzhqXoF9QigHe_is3-11" value="SISTEMA DE AMORIZAÇÃO CONSTANTE" style="ellipse;whiteSpace=wrap;html=1;fontSize=13;fillColor=#e3c800;strokeColor=#B09500;fontColor=#000000;labelBackgroundColor=none;fontStyle=0;" parent="EwVxq-ZTSb2x7PLmQgKl-1" vertex="1">
                    <mxGeometry x="220" y="234" width="120" height="120" as="geometry"/>
                </mxCell>
                <mxCell id="IpnKzhqXoF9QigHe_is3-13" value="SISTEMA DE AMORIZAÇÃO MISTO" style="ellipse;whiteSpace=wrap;html=1;fontSize=13;fillColor=#e3c800;strokeColor=#B09500;fontColor=#000000;labelBackgroundColor=none;fontStyle=0;" parent="EwVxq-ZTSb2x7PLmQgKl-1" vertex="1">
                    <mxGeometry x="350" y="509" width="120" height="120" as="geometry"/>
                </mxCell>
                <mxCell id="IpnKzhqXoF9QigHe_is3-15" value="SISTEMA AMERICANO DE AMORTIZAÇÃO" style="ellipse;whiteSpace=wrap;html=1;fontSize=13;fillColor=#e3c800;strokeColor=#B09500;fontColor=#000000;labelBackgroundColor=none;fontStyle=0;" parent="EwVxq-ZTSb2x7PLmQgKl-1" vertex="1">
                    <mxGeometry x="520" y="549" width="110" height="110" as="geometry"/>
                </mxCell>
                <mxCell id="IpnKzhqXoF9QigHe_is3-16" value="SISTEMA ALEMÃO DE AMORTIZAÇÃO" style="ellipse;whiteSpace=wrap;html=1;fontSize=13;fillColor=#e3c800;strokeColor=#B09500;fontColor=#000000;labelBackgroundColor=none;fontStyle=0;" parent="EwVxq-ZTSb2x7PLmQgKl-1" vertex="1">
                    <mxGeometry x="680" y="509" width="110" height="110" as="geometry"/>
                </mxCell>
                <mxCell id="IpnKzhqXoF9QigHe_is3-19" value="SISTEMA DE PAGAMENTO VARIÁVEL" style="ellipse;whiteSpace=wrap;html=1;fontSize=13;fillColor=#e3c800;strokeColor=#B09500;fontColor=#000000;labelBackgroundColor=none;fontStyle=0;" parent="EwVxq-ZTSb2x7PLmQgKl-1" vertex="1">
                    <mxGeometry x="760" y="379" width="110" height="110" as="geometry"/>
                </mxCell>
                <mxCell id="IpnKzhqXoF9QigHe_is3-21" value="SISTEMA DE PAGAMENTO ÚNICO" style="ellipse;whiteSpace=wrap;html=1;fontSize=13;fillColor=#e3c800;strokeColor=#B09500;fontColor=#000000;labelBackgroundColor=none;fontStyle=0;" parent="EwVxq-ZTSb2x7PLmQgKl-1" vertex="1">
                    <mxGeometry x="810" y="239" width="110" height="110" as="geometry"/>
                </mxCell>
            </root>
        </mxGraphModel>
    </diagram>
</mxfile>